<svg width="18" height="18" viewBox="0 0 18 18" fill="none" xmlns="http://www.w3.org/2000/svg">
<g clip-path="url(#clip0_9360_62869)">
<path d="M4.80293 1.39509C4.13543 1.39509 3.89543 1.28259 3.67793 1.47759C3.60293 1.59009 3.55793 1.71009 3.54293 1.84509C3.54293 1.92759 3.43793 2.64009 3.74543 2.84259C3.85793 2.88759 3.98543 2.91759 4.11293 2.91759C4.59293 2.95509 6.92543 2.80509 6.94793 2.80509C8.61293 2.85759 9.61043 2.67759 10.9004 2.64759C11.9054 2.62509 12.7679 2.74509 13.4129 2.76009C13.7954 2.76759 14.0654 2.76009 14.0654 2.76009C14.3129 2.76009 14.4029 2.40009 14.3654 1.82259C14.3654 1.71759 14.2229 1.35009 14.0729 1.35009C13.9229 1.35009 13.2329 1.32009 11.7479 1.26759C10.9304 1.23759 9.59543 1.29009 8.74793 1.30509C7.81793 1.32009 6.97043 1.43259 6.58043 1.41009L4.79543 1.39509H4.80293Z" fill="#F5EBDC"/>
<path d="M16.3956 9.06005C16.3581 8.76005 16.2981 8.46755 16.2156 8.18255C16.1331 7.73255 16.1331 7.64255 16.0431 7.26755C15.8406 6.52505 15.8481 6.28505 15.7131 5.64755C15.6981 5.58005 15.6381 5.01755 15.5181 4.53005C15.5031 4.45505 15.4806 4.38755 15.4431 4.32755C15.3156 4.11005 15.1131 3.93755 14.8656 3.86255C14.4306 3.75005 13.9731 3.72755 13.5231 3.79505C12.6456 3.79505 11.8506 3.84005 10.4556 3.80255C9.65305 3.78005 9.12805 3.81755 7.68805 3.85505C5.93305 3.90005 5.61055 3.90755 4.61305 3.85505C4.08055 3.80255 3.54055 3.80255 3.00055 3.85505C2.86555 3.85505 2.73055 3.90755 2.62555 3.99005C2.52805 4.08005 2.45305 4.20005 2.43055 4.33505C2.34805 4.62755 2.29555 4.93505 2.27305 5.24255C2.26555 5.82005 2.19055 6.39005 2.06305 6.95255C1.98805 7.25255 1.97305 7.21505 1.86055 7.64255C1.61305 8.57255 1.74055 8.55755 1.55305 9.23255C1.50055 9.45755 1.47805 9.68255 1.48555 9.90755C1.45555 10.1175 1.59805 10.3125 1.80805 10.3425C1.83055 10.3425 1.85305 10.3425 1.87555 10.3425H2.52055C2.51305 10.965 2.51305 11.565 2.54305 12.0826C2.58055 12.6825 2.49055 13.2825 2.55805 13.8825C2.61805 14.4225 2.55805 15.18 2.60305 15.7275C2.60305 16.2225 3.00055 16.6275 3.49555 16.6275C3.53305 16.6275 3.56305 16.6275 3.60055 16.6275C6.75805 16.6275 9.02305 16.8075 11.8131 16.7025L12.1506 16.6875V15.9825C12.1506 15.15 12.1881 13.9125 12.1506 12.5775C12.1506 12.5625 12.1206 10.845 12.1431 10.5975C12.1431 10.53 12.1581 10.47 12.1806 10.41C12.2781 10.3725 12.3606 10.425 12.4506 10.41C12.5406 10.395 12.6306 10.4025 12.7206 10.3875C12.7581 10.3875 12.7956 10.365 12.8331 10.35C12.9081 10.3125 12.9756 10.575 12.9756 10.92V12.585C12.9756 12.8551 13.0206 15.75 13.0131 16.65C13.2456 16.635 13.4856 16.62 13.7181 16.605C14.1831 16.5675 15.0981 16.6425 15.3006 16.095C15.3531 15.9225 15.3756 15.7425 15.3681 15.555V10.3425H16.1106C16.3356 10.3275 16.5081 10.1325 16.4931 9.90755C16.4931 9.90755 16.4931 9.90005 16.4931 9.89255C16.4856 9.61505 16.4556 9.33755 16.4031 9.06005H16.3956ZM9.07555 13.8375C8.01805 13.8375 7.20805 13.86 6.13555 13.845C5.79805 13.83 5.74555 13.02 5.74555 12.285C5.74555 11.9475 5.71555 11.55 5.73055 11.2125C5.74555 10.8825 5.75305 10.6275 6.00055 10.515C6.29305 10.38 7.78555 10.485 8.04055 10.4625C8.37055 10.4475 8.70805 10.4475 9.03805 10.4775C9.21805 10.485 9.35305 10.635 9.33805 10.815C9.31555 11.7225 9.32305 12.6226 9.36805 13.5301C9.33805 13.68 9.22555 13.8075 9.07555 13.8375Z" fill="#F5EBDC"/>
<path d="M3.6039 16.6277C3.1164 16.6802 2.6739 16.3352 2.6139 15.8402C2.6139 15.8027 2.6139 15.7652 2.6139 15.7352C2.5689 15.1877 2.6289 14.4302 2.5689 13.8977C2.5014 13.2977 2.5914 12.6977 2.5539 12.0977C2.5239 11.5802 2.5239 10.9727 2.5314 10.3577H1.8864C1.6764 10.3577 1.4964 10.1927 1.4964 9.98271C1.4964 9.96021 1.4964 9.93771 1.4964 9.91521C1.4889 9.69021 1.5114 9.45771 1.5639 9.24021C1.7514 8.56521 1.6239 8.58021 1.8714 7.65021C1.9839 7.22271 1.9989 7.26021 2.0739 6.96021C2.2089 6.39771 2.2764 5.82771 2.2839 5.25021C2.2989 4.94271 2.3514 4.64271 2.4414 4.34271C2.4714 4.20771 2.5389 4.08771 2.6364 3.99771C2.7489 3.91521 2.8764 3.87021 3.0114 3.86271C3.5439 3.81021 4.0839 3.81021 4.6239 3.86271C5.6214 3.90771 5.9439 3.90021 7.6989 3.86271C9.1389 3.82521 9.6564 3.79521 10.4664 3.81021C11.8614 3.84021 12.6564 3.80271 13.5339 3.80271C13.9764 3.73521 14.4339 3.75771 14.8764 3.87021C15.1164 3.95271 15.3264 4.11771 15.4539 4.33521C15.4914 4.40271 15.5139 4.47021 15.5289 4.53771C15.6489 5.02521 15.7089 5.58771 15.7239 5.65521C15.8589 6.29271 15.8514 6.53271 16.0539 7.27521C16.1364 7.65021 16.1439 7.74021 16.2264 8.19021C16.3089 8.47521 16.3689 8.77521 16.4139 9.06771C16.4589 9.34521 16.4889 9.62271 16.4964 9.90771C16.5189 10.1327 16.3539 10.3352 16.1214 10.3577C16.1214 10.3577 16.1139 10.3577 16.1064 10.3577H15.3639V15.5702C15.3714 15.7502 15.3564 15.9302 15.2964 16.1102C15.0939 16.6577 14.1714 16.5827 13.7139 16.6202C13.4814 16.6427 13.2414 16.6577 13.0089 16.6652C13.0239 15.7652 12.9714 12.8702 12.9714 12.6002V10.9352C12.9714 10.5902 12.9039 10.3277 12.8289 10.3652C12.7914 10.3802 12.7539 10.3952 12.7164 10.4027C12.6264 10.4177 12.5289 10.4102 12.4464 10.4252C12.4089 10.4252 12.3714 10.4252 12.3339 10.4252C12.2814 10.4102 12.2289 10.4177 12.1764 10.4327C12.1539 10.4927 12.1389 10.5527 12.1389 10.6202C12.1164 10.8602 12.1464 12.5852 12.1464 12.6002C12.1839 13.9352 12.1464 15.1727 12.1464 16.0052V16.7102L11.8089 16.7252C11.1939 16.7477 10.6014 16.7552 10.0164 16.7552C7.9689 16.7552 6.0564 16.6427 3.5964 16.6427L3.6039 16.6277ZM6.0114 10.5227C5.7714 10.6352 5.7639 10.8902 5.7414 11.2202C5.7264 11.5577 5.7564 11.9552 5.7564 12.2927C5.7564 13.0202 5.8014 13.8377 6.1464 13.8527C6.8064 13.8602 7.3689 13.8527 7.9539 13.8527C8.3139 13.8527 8.6814 13.8527 9.0939 13.8527C9.2439 13.8152 9.3639 13.6952 9.3864 13.5452C9.3414 12.6377 9.3339 11.7377 9.3564 10.8302C9.3714 10.6502 9.2364 10.5002 9.0564 10.4927C8.7264 10.4702 8.3889 10.4627 8.0589 10.4777C7.9689 10.4852 7.7289 10.4777 7.4439 10.4777C7.2489 10.4777 7.0314 10.4702 6.8289 10.4702C6.5589 10.4552 6.2814 10.4702 6.0189 10.5377L6.0114 10.5227ZM4.1214 2.91771C3.9939 2.91771 3.8739 2.89521 3.7539 2.84271C3.4464 2.63271 3.5514 1.92771 3.5514 1.84521C3.5664 1.71771 3.6114 1.59021 3.6864 1.47771C3.9039 1.28271 4.1364 1.38771 4.8114 1.39521L6.5889 1.41021C6.9789 1.43271 7.8189 1.32771 8.7564 1.30521C9.6039 1.29021 10.9389 1.23771 11.7564 1.26771C13.2414 1.32771 13.9464 1.35021 14.0814 1.35021C14.2164 1.35021 14.3664 1.71771 14.3739 1.81521C14.4114 2.39271 14.3214 2.75271 14.0739 2.75271C14.0739 2.75271 13.7964 2.76771 13.4214 2.75271C12.7764 2.73771 11.9139 2.61021 10.9089 2.64021C9.6264 2.67021 8.6289 2.85771 6.9564 2.80521C6.9489 2.80521 6.4764 2.83521 5.9139 2.86521C5.3514 2.89521 4.7064 2.92521 4.3389 2.92521C4.2489 2.92521 4.1739 2.92521 4.1289 2.92521L4.1214 2.91771Z" fill="#F5EBDC"/>
</g>
<defs>
<clipPath id="clip0_9360_62869">
<rect width="18" height="18" fill="white"/>
</clipPath>
</defs>
</svg>
