<svg width="30" height="30" viewBox="0 0 30 30" fill="none" xmlns="http://www.w3.org/2000/svg">
<g clip-path="url(#clip0_735_23576)">
<path d="M23.7875 5.57511H12.7875C10.8125 5.57511 8.83748 5.52511 6.87498 5.57511C6.46248 5.57511 6.07498 5.58761 5.71248 5.28761C5.33748 4.97511 5.09998 4.43761 5.09998 3.87511C5.09998 3.32511 5.19998 2.80011 5.64998 2.63761C6.44998 2.33761 7.27498 2.31261 8.08748 2.31261C9.91248 2.31261 11.7375 2.18761 13.5625 2.18761C17.2 2.17511 20.825 2.36261 24.4625 2.41261C25.025 2.41261 24.925 3.56261 24.8625 4.03761C24.7625 4.80011 24.475 5.58761 23.7875 5.58761V5.57511Z" fill="#502314"/>
<path d="M22.925 15.1874C22.3125 14.3749 21.35 13.6249 20.875 13.0874L18.525 10.3624C18.025 9.78739 16.575 8.68739 16.0375 8.14989C14.975 7.08739 13.675 8.22489 12.6 9.28739C10.9875 10.8999 10.275 11.9874 8.71248 13.6499C7.88748 14.5249 5.59998 16.1874 6.92498 17.5124C7.66248 18.2499 8.84998 18.2499 9.58748 17.5124C10.175 16.9249 10.75 16.3124 11.325 15.7124C11.6125 15.4249 11.8875 15.1374 12.1875 14.8499C12.4125 14.6249 12.8 14.1374 13.0875 14.0874C13.25 14.8124 13.25 15.6124 13.3125 16.3499C13.475 18.1249 13.2375 19.9499 13.175 21.7499C13.1375 23.0249 13.2 24.2999 13.225 25.5749C13.225 26.6124 14.3 27.8124 15.3375 27.8124C16.375 27.8124 16.8375 27.0124 16.8375 25.9749C16.8375 22.6124 16.7375 19.2999 16.5625 15.9499C16.525 15.2624 16.2625 14.0374 16.575 13.3999C17.25 13.6499 17.9625 14.6124 18.475 15.1249C19.1 15.7499 19.7125 16.3874 20.3375 17.0124C20.6125 17.2874 20.825 17.6124 21.1375 17.8374C21.7375 18.2749 22.5125 17.9999 23 17.5249C23.75 16.7749 23.4875 15.9499 22.9 15.1874H22.925Z" fill="#502314"/>
</g>
<defs>
<clipPath id="clip0_735_23576">
<rect width="30" height="30" fill="white"/>
</clipPath>
</defs>
</svg>
