<svg width="14" height="14" viewBox="0 0 14 14" fill="none" xmlns="http://www.w3.org/2000/svg">
<g clip-path="url(#clip0_9360_63216)">
<path fill-rule="evenodd" clip-rule="evenodd" d="M10.2316 4.22917C9.24575 9.66583 0.758253 5.93833 4.92325 1.88417C5.15075 1.6975 5.42492 1.51667 5.74575 1.3475C7.58909 0.379166 10.6049 2.1875 10.2316 4.235V4.22917ZM7.02325 7.95083C10.4824 7.95083 12.6874 9.2925 12.6874 11.6958C12.6874 11.97 12.7749 12.845 12.5591 12.8858C12.4541 12.9092 11.9233 12.915 11.5616 12.9208H11.4099C10.7158 12.9208 9.80575 12.88 9.59575 12.8742C8.80825 12.8392 8.25409 12.8275 7.84575 12.8275C6.52159 12.8275 4.21159 12.9267 3.06825 12.8683C2.21659 12.8217 1.55742 12.8975 1.37659 12.6525C1.28325 12.5242 1.31242 11.6375 1.31242 11.4042C1.31242 8.77917 4.43909 7.945 7.03492 7.945L7.02325 7.95083Z" fill="#F5EBDC"/>
</g>
<defs>
<clipPath id="clip0_9360_63216">
<rect width="14" height="14" fill="white"/>
</clipPath>
</defs>
</svg>
