<svg width="163" height="48" viewBox="0 0 163 48" fill="none" xmlns="http://www.w3.org/2000/svg">
<path d="M156.505 0H6.49537C3.18422 0 0.5 2.68422 0.5 5.99537V42.0051C0.5 45.3162 3.18422 48.0005 6.49537 48.0005H156.505C159.816 48.0005 162.5 45.3162 162.5 42.0051V5.99537C162.5 2.68422 159.816 0 156.505 0Z" fill="black"/>
<path d="M156.505 0.949265C159.29 0.949265 161.551 3.21002 161.551 5.99537V41.9926C161.551 44.778 159.29 47.0387 156.505 47.0387H6.49537C3.71002 47.0387 1.44927 44.778 1.44927 41.9926V5.99537C1.44927 3.21002 3.71002 0.949265 6.49537 0.949265H156.492M156.505 0H6.49537C3.19792 0 0.5 2.69792 0.5 5.99537V41.9926C0.5 45.2901 3.19792 47.988 6.49537 47.988H156.492C159.79 47.988 162.488 45.2901 162.488 41.9926V5.99537C162.488 2.69792 159.79 0 156.492 0H156.505Z" fill="#A6A6A6"/>
<path d="M31.853 24.8558C31.8779 22.7324 32.9896 20.7839 34.8007 19.6723C33.6516 18.0361 31.803 17.0368 29.817 16.9744C27.7186 16.7496 25.6827 18.2234 24.621 18.2234C23.5594 18.2234 21.8856 16.9869 20.112 17.0243C17.7763 17.0993 15.6654 18.3983 14.5288 20.4342C12.1182 24.6185 13.9168 30.7637 16.2275 34.1486C17.3891 35.8098 18.7381 37.6584 20.5117 37.5835C22.2479 37.5085 22.8974 36.4843 24.9833 36.4843C27.0691 36.4843 27.6562 37.5835 29.4673 37.546C31.3284 37.521 32.5025 35.8848 33.6141 34.2111C34.451 33.037 35.088 31.7255 35.5126 30.3516C33.3018 29.4148 31.8654 27.254 31.8654 24.8558H31.853Z" fill="white"/>
<path d="M28.4408 14.7511C29.4525 13.5395 29.9521 11.9658 29.8272 10.392C28.2784 10.5543 26.842 11.2913 25.8178 12.4654C24.8061 13.6145 24.294 15.1258 24.3939 16.6621C25.9677 16.6746 27.454 15.9752 28.4408 14.7511Z" fill="white"/>
<path d="M52.322 18.9604H47.2759L46.0643 22.5451H43.9285L48.7123 9.29285H50.9356L55.7194 22.5451H53.546L52.3345 18.9604H52.322ZM47.788 17.3117H51.7974L49.8239 11.4912H49.774L47.8005 17.3117H47.788Z" fill="white"/>
<path d="M66.0609 17.7114C66.0609 20.709 64.4497 22.645 62.0265 22.645C60.7775 22.7075 59.5909 22.058 58.9914 20.9588H58.9414V25.7427H56.9554V12.8776H58.879V14.4888H58.9164C59.5534 13.3897 60.7275 12.7402 61.9891 12.7777C64.4372 12.7777 66.0609 14.7137 66.0609 17.7114ZM64.025 17.7114C64.025 15.7504 63.0133 14.4639 61.477 14.4639C59.9406 14.4639 58.9414 15.7753 58.9414 17.7114C58.9414 19.6474 59.9656 20.9588 61.477 20.9588C63.0258 20.9588 64.025 19.6848 64.025 17.7114Z" fill="white"/>
<path d="M76.7168 17.7114C76.7168 20.709 75.1055 22.645 72.6824 22.645C71.4334 22.7075 70.2468 22.058 69.6473 20.9588H69.5973V25.7427H67.6113V12.8776H69.5348V14.4888H69.5723C70.2093 13.3897 71.3834 12.7402 72.6449 12.7777C75.0931 12.7777 76.7168 14.7137 76.7168 17.7114ZM74.6809 17.7114C74.6809 15.7504 73.6692 14.4639 72.1328 14.4639C70.5965 14.4639 69.5973 15.7753 69.5973 17.7114C69.5973 19.6474 70.6215 20.9588 72.1328 20.9588C73.6816 20.9588 74.6809 19.6848 74.6809 17.7114Z" fill="white"/>
<path d="M83.7839 18.848C83.9338 20.1595 85.2078 21.0213 86.9565 21.0213C88.7051 21.0213 89.8293 20.1595 89.8293 18.9729C89.8293 17.9487 89.1048 17.3242 87.3812 16.8995L85.6575 16.4873C83.2219 15.9003 82.0977 14.7636 82.0977 12.9151C82.0977 10.6293 84.0962 9.05554 86.919 9.05554C89.7418 9.05554 91.6404 10.6293 91.7028 12.9151H89.7044C89.5795 11.5911 88.4928 10.7917 86.894 10.7917C85.2953 10.7917 84.2086 11.6036 84.2086 12.7777C84.2086 13.7144 84.9081 14.264 86.6192 14.6887L88.0806 15.0509C90.8035 15.6879 91.9277 16.7871 91.9277 18.7231C91.9277 21.2087 89.9542 22.7575 86.8066 22.7575C83.8714 22.7575 81.8854 21.2461 81.7605 18.848H83.7839Z" fill="white"/>
<path d="M96.2117 10.5918V12.8775H98.0478V14.4513H96.2117V19.7847C96.2117 20.6091 96.574 20.9963 97.3858 20.9963C97.5982 20.9963 97.823 20.9838 98.0353 20.9463V22.5076C97.6731 22.5701 97.2984 22.6075 96.9362 22.595C94.9752 22.595 94.2133 21.8581 94.2133 19.9846V14.4513H92.8019V12.8775H94.2133V10.5918H96.2117Z" fill="white"/>
<path d="M99.1349 17.7113C99.1349 14.6762 100.921 12.7651 103.719 12.7651C106.517 12.7651 108.303 14.6762 108.303 17.7113C108.303 20.7465 106.529 22.6575 103.719 22.6575C100.909 22.6575 99.1349 20.759 99.1349 17.7113ZM106.279 17.7113C106.279 15.6254 105.33 14.3889 103.719 14.3889C102.108 14.3889 101.158 15.6254 101.158 17.7113C101.158 19.7972 102.108 21.0213 103.719 21.0213C105.33 21.0213 106.279 19.7972 106.279 17.7113Z" fill="white"/>
<path d="M109.94 12.8776H111.826V14.5263H111.876C112.138 13.4646 113.112 12.7402 114.199 12.7776C114.424 12.7776 114.661 12.8026 114.873 12.8526V14.7136C114.586 14.6262 114.286 14.5887 113.987 14.5887C112.887 14.5388 111.951 15.4006 111.913 16.4998C111.913 16.5997 111.913 16.6996 111.913 16.812V22.5451H109.927V12.8776H109.94Z" fill="white"/>
<path d="M124.032 19.7098C123.582 21.5958 121.796 22.8574 119.873 22.67C117.062 22.67 115.314 20.7839 115.314 17.7613C115.314 14.7386 117.062 12.7651 119.785 12.7651C122.508 12.7651 124.144 14.6012 124.144 17.5365V18.2109H117.325V18.3358C117.2 19.7223 118.224 20.9463 119.61 21.0587C119.71 21.0587 119.823 21.0587 119.923 21.0587C120.884 21.1462 121.796 20.5966 122.158 19.6973H124.044L124.032 19.7098ZM117.325 16.8245H122.158C122.233 15.538 121.247 14.4513 119.96 14.3764C119.898 14.3764 119.848 14.3764 119.785 14.3764C118.436 14.3764 117.325 15.4631 117.325 16.812C117.325 16.812 117.325 16.8245 117.325 16.837V16.8245Z" fill="white"/>
<path d="M132.173 9.50522H133.722V21.9081H132.173V15.6505H131.036C130.899 17.8613 130 19.7848 128.189 19.7848C126.203 19.7848 125.316 17.4741 125.316 15.001C125.316 12.5279 126.203 10.2671 128.189 10.2671C129.962 10.2671 130.862 12.0657 131.036 14.2016H132.173V9.50522ZM129.538 15.001C129.538 13.1774 129.1 11.791 128.189 11.791C127.277 11.791 126.89 13.1774 126.89 15.001C126.89 16.8246 127.302 18.1985 128.189 18.1985C129.1 18.1985 129.538 16.8246 129.538 15.001ZM136.42 9.24292V22.5327H134.871V9.24292H136.42Z" fill="white"/>
<path d="M143.413 12.3655C143.3 14.7512 144.574 16.9994 146.698 18.1111L145.736 19.3601C144.312 18.5482 143.213 17.2867 142.588 15.7754C142.026 17.4241 140.89 18.8105 139.403 19.6973L138.392 18.4983C140.552 17.2492 141.839 14.9135 141.727 12.4155V10.3546H143.425V12.353L143.413 12.3655ZM149.633 22.5327H147.972V15.2258H145.311V13.8269H147.972V9.24292H149.633V22.5327Z" fill="white"/>
<path d="M43.9187 30.2641H48.3528V31.1509H45.0054V36.0846H43.9187V30.2641ZM43.9187 35.6599H44.6931C45.2677 35.6599 45.7923 35.6599 46.2669 35.6349C46.7415 35.6225 47.2162 35.585 47.6658 35.535C48.1155 35.4851 48.5776 35.4226 49.0398 35.3477L49.1522 36.2595C48.6775 36.3469 48.2029 36.4218 47.7408 36.4593C47.2786 36.5093 46.7915 36.5342 46.3044 36.5592C45.8172 36.5842 45.2677 36.5842 44.6931 36.5842H43.9187V35.6599ZM49.8266 29.3523H50.9258V38.9199H49.8266V29.3523ZM50.6885 33.0245H52.4122V33.9363H50.6885V33.0245Z" fill="white"/>
<path d="M53.4572 34.1237H62.1005V34.998H53.4572V34.1237ZM57.7663 29.5647C58.4408 29.5647 59.0279 29.6396 59.54 29.802C60.0521 29.9644 60.4393 30.1892 60.7265 30.4765C61.0138 30.7638 61.1512 31.1135 61.1512 31.5132C61.1512 31.9129 61.0138 32.2501 60.7265 32.5499C60.4393 32.8372 60.0521 33.062 59.54 33.2244C59.0279 33.3743 58.4408 33.4617 57.7663 33.4617C57.0918 33.4617 56.4923 33.3867 55.9802 33.2244C55.4681 33.062 55.0684 32.8497 54.7936 32.5499C54.5188 32.2626 54.3814 31.9129 54.3814 31.5132C54.3814 31.1135 54.5188 30.7763 54.7936 30.4765C55.0684 30.1892 55.4681 29.9644 55.9802 29.802C56.4923 29.6396 57.0794 29.5647 57.7663 29.5647ZM54.5188 35.8973H55.6305V38.0581H54.5188V35.8973ZM54.5188 37.8208H61.1512V38.7076H54.5188V37.8208ZM57.7663 30.4515C57.3167 30.4515 56.9295 30.489 56.5922 30.5764C56.255 30.6639 56.0052 30.7888 55.8178 30.9386C55.643 31.101 55.543 31.2884 55.543 31.5132C55.543 31.738 55.6305 31.9254 55.8178 32.0878C55.9927 32.2501 56.255 32.375 56.5922 32.45C56.9295 32.5249 57.3167 32.5749 57.7663 32.5749C58.216 32.5749 58.6032 32.5374 58.9404 32.45C59.2777 32.3625 59.5275 32.2501 59.7023 32.0878C59.8897 31.9254 59.9771 31.738 59.9771 31.5132C59.9771 31.2884 59.8897 31.101 59.7023 30.9386C59.515 30.7763 59.2652 30.6514 58.9404 30.5764C58.6157 30.489 58.2285 30.4515 57.7663 30.4515ZM57.2917 34.6857H58.4158V36.7966H57.2917V34.6857Z" fill="white"/>
<path d="M62.8884 36.884H71.5318V37.7833H62.8884V36.884ZM63.9001 30.0268H70.4951V33.0494H64.9868V34.8106H63.9126V32.1751H69.4084V30.9011H63.9001V30.0143V30.0268ZM63.9251 34.3859H70.7199V35.2602H63.9251V34.3859ZM66.6355 34.948H67.7347V37.2587H66.6355V34.948Z" fill="white"/>
<path d="M72.7587 36.7841H81.402V37.6834H72.7587V36.7841ZM73.8079 30.2017H80.3403V31.0885H74.8945V34.236H73.8079V30.2017ZM73.8079 33.8613H80.4278V34.7482H73.8079V33.8613Z" fill="white"/>
</svg>
