<svg width="163" height="48" viewBox="0 0 163 48" fill="none" xmlns="http://www.w3.org/2000/svg">
<path d="M156.505 -0.000488281H6.49537C3.18422 -0.000488281 0.5 2.68373 0.5 5.99489V42.0046C0.5 45.3158 3.18422 48 6.49537 48H156.505C159.816 48 162.5 45.3158 162.5 42.0046V5.99489C162.5 2.68373 159.816 -0.000488281 156.505 -0.000488281Z" fill="black"/>
<path d="M156.505 0.96127C159.29 0.96127 161.551 3.22203 161.551 6.00738V42.0046C161.551 44.79 159.29 47.0507 156.505 47.0507H6.49537C3.71002 47.0507 1.44927 44.79 1.44927 42.0046V5.99489C1.46176 3.22203 3.72251 0.96127 6.49537 0.96127H156.492M156.505 -0.000488281H6.49537C3.19792 -0.000488281 0.5 2.69743 0.5 5.99489V41.9921C0.5 45.2896 3.19792 47.9875 6.49537 47.9875H156.492C159.79 47.9875 162.488 45.2896 162.488 41.9921V5.99489C162.5 2.69743 159.802 -0.000488281 156.505 -0.000488281Z" fill="#A6A6A6"/>
<path d="M25.3582 23.3065L12.5806 36.8711C12.9678 38.3449 14.3167 39.4316 15.9155 39.4316C16.5525 39.4316 17.152 39.2567 17.6641 38.9569L17.7016 38.932L32.078 30.6384L25.3457 23.3065H25.3582Z" fill="#EA4335"/>
<path d="M38.283 20.9958L32.0753 17.3861L25.0807 23.6063L32.1003 30.6259L38.2705 27.0661C39.3572 26.4791 40.0941 25.3425 40.0941 24.0185C40.0941 22.6945 39.3697 21.5704 38.2955 20.9833L38.283 20.9958Z" fill="#FBBC04"/>
<path d="M12.5807 11.1285C12.5057 11.4157 12.4683 11.703 12.4683 12.0153V35.9718C12.4683 36.284 12.5057 36.5713 12.5807 36.8586L25.7955 23.6438L12.5807 11.116V11.1285Z" fill="#4285F4"/>
<path d="M25.4581 24.006L32.0655 17.3986L17.7016 9.06749C17.177 8.75523 16.565 8.56787 15.9155 8.56787C14.3167 8.56787 12.9678 9.65453 12.5806 11.1284L25.4456 23.9935L25.4581 24.006Z" fill="#34A853"/>
<path d="M52.0224 20.109C51.2355 19.6593 50.5985 19.0348 50.1363 18.2479C49.6742 17.461 49.4369 16.5867 49.4369 15.625C49.4369 14.6632 49.6742 13.7889 50.1363 13.002C50.5985 12.2151 51.223 11.5906 52.0224 11.1409C52.8093 10.6913 53.6836 10.4664 54.6204 10.4664C55.3698 10.4664 56.0568 10.6038 56.7063 10.8661C57.3558 11.1284 57.8929 11.5031 58.3175 11.9903L57.2434 13.0644C56.9186 12.7022 56.5439 12.4274 56.0943 12.2401C55.6446 12.0527 55.1575 11.9528 54.6079 11.9528C53.9709 11.9528 53.3838 12.1027 52.8218 12.4024C52.2597 12.7022 51.8225 13.1394 51.4978 13.7014C51.1606 14.2635 50.9982 14.9005 50.9982 15.6374C50.9982 16.3744 51.1606 17.0114 51.4978 17.5734C51.835 18.1355 52.2722 18.5727 52.8218 18.8724C53.3714 19.1722 53.9709 19.3221 54.6204 19.3221C55.2074 19.3221 55.707 19.2347 56.0943 19.0598C56.4939 18.8849 56.8437 18.6476 57.1559 18.3603C57.3558 18.1605 57.5306 17.9107 57.668 17.5984C57.8054 17.2862 57.9054 16.9614 57.9553 16.5992H54.6079V15.2253H59.4292C59.4791 15.4876 59.5041 15.7499 59.5041 16.0246C59.5041 16.6492 59.4042 17.2487 59.2168 17.8233C59.0295 18.3978 58.7172 18.8974 58.2926 19.3221C57.3683 20.3088 56.1442 20.796 54.6329 20.796C53.6961 20.796 52.8343 20.5711 52.0349 20.1215L52.0224 20.109Z" fill="white"/>
<path d="M62.4546 20.2963C61.8925 19.9716 61.4554 19.5219 61.1431 18.9474C60.8308 18.3728 60.6685 17.7483 60.6685 17.0488C60.6685 16.3494 60.8183 15.7124 61.1431 15.1503C61.4554 14.5757 61.8925 14.1261 62.4546 13.8013C63.0166 13.4766 63.6537 13.3142 64.3531 13.3142C65.0526 13.3142 65.7021 13.4766 66.2517 13.8138C66.8137 14.1511 67.2509 14.6007 67.5631 15.1628C67.8754 15.7373 68.0378 16.3619 68.0378 17.0488C68.0378 17.7358 67.8879 18.3853 67.5631 18.9474C67.2509 19.5219 66.8137 19.9716 66.2517 20.2963C65.6896 20.6211 65.0526 20.7834 64.3531 20.7834C63.6537 20.7834 63.0042 20.6211 62.4546 20.2963ZM65.4398 19.1097C65.7645 18.9224 66.0393 18.6476 66.2392 18.2979C66.439 17.9481 66.5389 17.5235 66.5389 17.0488C66.5389 16.5742 66.439 16.162 66.2392 15.8123C66.0393 15.4626 65.777 15.1878 65.4398 15.0004C65.1025 14.8131 64.7528 14.7131 64.3656 14.7131C63.9784 14.7131 63.6162 14.8131 63.2914 15.0004C62.9542 15.1878 62.6919 15.4626 62.4921 15.8123C62.2922 16.162 62.1923 16.5742 62.1923 17.0488C62.1923 17.5235 62.2922 17.9481 62.4921 18.2979C62.6919 18.6476 62.9542 18.9224 63.2914 19.1097C63.6162 19.2971 63.9784 19.397 64.3656 19.397C64.7528 19.397 65.115 19.2971 65.4398 19.1097Z" fill="white"/>
<path d="M70.8612 20.2963C70.2991 19.9716 69.862 19.5219 69.5497 18.9474C69.2374 18.3728 69.0751 17.7483 69.0751 17.0488C69.0751 16.3494 69.225 15.7124 69.5497 15.1503C69.862 14.5757 70.2991 14.1261 70.8612 13.8013C71.4233 13.4766 72.0603 13.3142 72.7597 13.3142C73.4592 13.3142 74.1087 13.4766 74.6583 13.8138C75.2203 14.1511 75.6575 14.6007 75.9698 15.1628C76.282 15.7373 76.4444 16.3619 76.4444 17.0488C76.4444 17.7358 76.2945 18.3853 75.9698 18.9474C75.6575 19.5219 75.2203 19.9716 74.6583 20.2963C74.0962 20.6211 73.4592 20.7834 72.7597 20.7834C72.0603 20.7834 71.4108 20.6211 70.8612 20.2963ZM73.8464 19.1097C74.1711 18.9224 74.4459 18.6476 74.6458 18.2979C74.8456 17.9481 74.9455 17.5235 74.9455 17.0488C74.9455 16.5742 74.8456 16.162 74.6458 15.8123C74.4459 15.4626 74.1836 15.1878 73.8464 15.0004C73.5092 14.8131 73.1594 14.7131 72.7722 14.7131C72.385 14.7131 72.0228 14.8131 71.6981 15.0004C71.3608 15.1878 71.0985 15.4626 70.8987 15.8123C70.6988 16.162 70.5989 16.5742 70.5989 17.0488C70.5989 17.5235 70.6988 17.9481 70.8987 18.2979C71.0985 18.6476 71.3608 18.9224 71.6981 19.1097C72.0228 19.2971 72.385 19.397 72.7722 19.397C73.1594 19.397 73.5216 19.2971 73.8464 19.1097Z" fill="white"/>
<path d="M78.9027 23.1692C78.3407 22.7695 77.9535 22.3073 77.7661 21.7578L79.19 21.1582C79.3399 21.5205 79.5772 21.8202 79.902 22.0451C80.2267 22.2699 80.6139 22.3823 81.0511 22.3823C81.7006 22.3823 82.2002 22.1949 82.5624 21.8077C82.9246 21.4205 83.112 20.8959 83.112 20.1965V19.547H83.0246C82.7997 19.8842 82.4875 20.134 82.1128 20.3214C81.7381 20.5087 81.2884 20.6087 80.7888 20.6087C80.2017 20.6087 79.6522 20.4588 79.1526 20.159C78.6404 19.8592 78.2408 19.4221 77.941 18.8725C77.6412 18.3104 77.4913 17.6734 77.4913 16.9615C77.4913 16.2495 77.6412 15.6125 77.941 15.0504C78.2408 14.4884 78.6404 14.0637 79.1526 13.7514C79.6647 13.4392 80.2017 13.2893 80.7888 13.2893C81.2759 13.2893 81.7131 13.3892 82.1003 13.5766C82.4875 13.7639 82.7997 14.0262 83.0246 14.3635H83.112V13.5016H84.5609V20.159C84.5609 20.9209 84.411 21.5704 84.1237 22.1075C83.8239 22.6446 83.4243 23.0568 82.8872 23.3316C82.3626 23.6063 81.7505 23.7437 81.0636 23.7437C80.2017 23.7437 79.4898 23.5439 78.9152 23.1442L78.9027 23.1692ZM82.0753 18.9849C82.3876 18.81 82.6374 18.5477 82.8247 18.198C83.0121 17.8483 83.0995 17.4486 83.0995 16.974C83.0995 16.262 82.8997 15.6999 82.5125 15.3003C82.1253 14.9006 81.6381 14.7007 81.0511 14.7007C80.6764 14.7007 80.3266 14.7881 80.0144 14.9755C79.7021 15.1504 79.4523 15.4127 79.265 15.7499C79.0776 16.0871 78.9902 16.4993 78.9902 16.974C78.9902 17.4486 79.0776 17.8608 79.265 18.198C79.4523 18.5353 79.7021 18.7976 80.0144 18.9724C80.3266 19.1473 80.6764 19.2472 81.0511 19.2472C81.4258 19.2472 81.763 19.1598 82.0753 18.9724V18.9849Z" fill="white"/>
<path d="M86.3712 10.6788H87.895V20.5587H86.3712V10.6788Z" fill="white"/>
<path d="M91.0919 20.2963C90.5423 19.9716 90.1051 19.5344 89.7929 18.9724C89.4806 18.4103 89.3182 17.7983 89.3182 17.1363C89.3182 16.4243 89.4681 15.7998 89.7804 15.2502C90.0926 14.7007 90.5048 14.2635 91.0294 13.9637C91.554 13.6515 92.1286 13.5016 92.7531 13.5016C93.5899 13.5016 94.2644 13.7514 94.7765 14.2385C95.2886 14.7256 95.6508 15.2502 95.8632 15.8248L96.0256 16.237L91.1543 18.2479C91.529 18.9849 92.1161 19.3471 92.9155 19.3471C93.6524 19.3471 94.2519 19.0098 94.7141 18.3354L95.9506 19.1597C95.6758 19.5719 95.2886 19.9466 94.7765 20.2839C94.2644 20.6211 93.6524 20.7835 92.9155 20.7835C92.2285 20.7835 91.6165 20.6211 91.0669 20.2963H91.0919ZM94.1645 15.6749C94.0771 15.4501 93.9022 15.2627 93.6524 15.1128C93.4026 14.9754 93.1278 14.9005 92.8155 14.9005C92.5283 14.9005 92.241 14.9879 91.9287 15.1503C91.6289 15.3127 91.3791 15.5625 91.1793 15.8872C90.9795 16.212 90.892 16.5867 90.9045 17.0364L94.1645 15.6874V15.6749Z" fill="white"/>
<path d="M100.413 10.6788H103.835C104.41 10.6788 104.947 10.8037 105.447 11.066C105.934 11.3283 106.334 11.6781 106.621 12.1402C106.908 12.6023 107.058 13.1145 107.058 13.7015C107.058 14.2885 106.908 14.8007 106.621 15.2628C106.334 15.7249 105.934 16.0872 105.447 16.337C104.96 16.5993 104.422 16.7242 103.835 16.7242H101.962V20.5587H100.413V10.6788ZM103.86 15.2628C104.198 15.2628 104.497 15.1879 104.747 15.038C104.997 14.8881 105.184 14.6882 105.309 14.4509C105.434 14.2136 105.497 13.9638 105.497 13.7015C105.497 13.4392 105.434 13.1894 105.309 12.9521C105.184 12.7148 104.997 12.5149 104.747 12.3775C104.497 12.2401 104.21 12.1527 103.86 12.1527H101.962V15.2628H103.86Z" fill="white"/>
<path d="M108.307 10.6788H109.831V20.5587H108.307V10.6788Z" fill="white"/>
<path d="M112.516 20.4837C112.116 20.2838 111.816 20.009 111.592 19.6468C111.367 19.2846 111.254 18.8724 111.254 18.4103C111.254 17.6858 111.529 17.1113 112.079 16.6866C112.628 16.2619 113.315 16.0496 114.152 16.0496C114.564 16.0496 114.939 16.0871 115.276 16.162C115.614 16.2369 115.863 16.3244 116.063 16.4118V16.0496C116.063 15.6124 115.901 15.2627 115.576 14.9879C115.251 14.7131 114.839 14.5757 114.34 14.5757C113.977 14.5757 113.64 14.6507 113.328 14.813C113.016 14.9754 112.753 15.1878 112.566 15.4625L111.504 14.6507C111.816 14.2135 112.229 13.8763 112.716 13.639C113.203 13.4016 113.765 13.2767 114.377 13.2767C115.401 13.2767 116.188 13.5265 116.738 14.0262C117.287 14.5258 117.562 15.2377 117.562 16.1495V20.5336H116.076V19.6968H116.001C115.801 19.9965 115.514 20.2588 115.151 20.4587C114.789 20.6585 114.364 20.7585 113.877 20.7585C113.365 20.7585 112.916 20.6585 112.528 20.4587L112.516 20.4837ZM115.126 19.2596C115.426 19.0848 115.651 18.8474 115.813 18.5602C115.976 18.2604 116.063 17.9481 116.063 17.6109C115.851 17.486 115.601 17.3986 115.326 17.3236C115.051 17.2487 114.752 17.2112 114.452 17.2112C113.877 17.2112 113.465 17.3236 113.203 17.5484C112.941 17.7733 112.803 18.0605 112.803 18.4228C112.803 18.7475 112.928 19.0098 113.178 19.2221C113.428 19.4345 113.752 19.5344 114.14 19.5344C114.502 19.5344 114.839 19.447 115.126 19.2721V19.2596Z" fill="white"/>
<path d="M121.096 20.1714L118.173 13.514H119.872L121.858 18.2978H121.92L123.856 13.514H125.53L121.183 23.5313H119.584L121.121 20.1589L121.096 20.1714Z" fill="white"/>
<path d="M129.229 10.0542C129.778 10.0542 130.265 10.2416 130.665 10.6038C131.077 10.966 131.389 11.4781 131.614 12.1526C131.839 12.8146 131.951 13.614 131.951 14.5507C131.951 15.4875 131.839 16.2619 131.614 16.9364C131.389 17.6109 131.077 18.123 130.665 18.4852C130.253 18.8474 129.778 19.0223 129.229 19.0223C128.679 19.0223 128.217 18.8474 127.805 18.4852C127.405 18.123 127.08 17.6109 126.868 16.9364C126.656 16.2619 126.531 15.475 126.531 14.5507C126.531 13.6264 126.643 12.8271 126.868 12.1526C127.093 11.4906 127.405 10.966 127.817 10.6038C128.229 10.2416 128.691 10.0542 129.229 10.0542ZM129.229 11.4281C128.954 11.4281 128.704 11.553 128.492 11.7904C128.279 12.0277 128.117 12.3774 128.005 12.852C127.892 13.3142 127.842 13.8887 127.842 14.5507C127.842 15.2127 127.892 15.7623 128.005 16.2369C128.117 16.7116 128.279 17.0613 128.492 17.3111C128.704 17.5609 128.941 17.6733 129.229 17.6733C129.528 17.6733 129.778 17.5484 129.978 17.3111C130.19 17.0613 130.34 16.7116 130.453 16.2369C130.565 15.7623 130.615 15.2002 130.615 14.5507C130.615 13.9012 130.565 13.3142 130.453 12.852C130.34 12.3899 130.178 12.0402 129.978 11.7904C129.766 11.553 129.516 11.4281 129.229 11.4281ZM131.477 13.8638H133.725V15.0503H131.477V13.8638ZM133.263 9.32976H134.612V21.0957H133.263V9.32976ZM135.786 9.07996H137.172V21.6952H135.786V9.07996Z" fill="white"/>
<path d="M142.077 10.1167H143.251V12.1901C143.251 12.9395 143.176 13.6639 143.014 14.3634C142.851 15.0628 142.627 15.7248 142.327 16.3369C142.027 16.9489 141.665 17.486 141.24 17.9606C140.816 18.4352 140.328 18.8099 139.779 19.0847L138.88 17.9356C139.379 17.6983 139.816 17.3736 140.216 16.9739C140.603 16.5742 140.94 16.112 141.228 15.5874C141.515 15.0628 141.715 14.5258 141.865 13.9512C142.002 13.3766 142.077 12.7896 142.077 12.1901V10.1167ZM142.377 10.1167H143.538V12.1901C143.538 12.7646 143.613 13.3392 143.751 13.9137C143.888 14.4758 144.1 15.0129 144.375 15.5C144.65 15.9871 144.987 16.4368 145.375 16.824C145.762 17.2112 146.199 17.511 146.686 17.7358L145.812 18.8974C145.275 18.6226 144.787 18.2604 144.363 17.7982C143.938 17.3361 143.576 16.824 143.289 16.2369C142.989 15.6499 142.764 15.0129 142.614 14.3259C142.452 13.6389 142.377 12.9395 142.377 12.2025V10.1291V10.1167ZM145.3 13.2143H148.734V14.3884H145.3V13.2143ZM147.997 9.07996H149.446V21.7202H147.997V9.07996Z" fill="white"/>
<path d="M49.5491 29.3644H53.9832V30.2512H50.6357V35.1849H49.5491V29.3644ZM49.5491 34.7602H50.3235C50.898 34.7602 51.4226 34.7602 51.8973 34.7352C52.3719 34.7228 52.8465 34.6853 53.2962 34.6353C53.7458 34.5854 54.208 34.5229 54.6701 34.448L54.7825 35.3598C54.3079 35.4472 53.8333 35.5221 53.3711 35.5596C52.909 35.6096 52.4219 35.6346 51.9347 35.6595C51.4476 35.6845 50.898 35.6845 50.3235 35.6845H49.5491V34.7602ZM55.457 28.4651H56.5562V38.0327H55.457V28.4651ZM56.3064 32.1248H58.03V33.0366H56.3064V32.1248Z" fill="white"/>
<path d="M59.0925 33.2239H67.7359V34.0982H59.0925V33.2239ZM63.4017 28.6649C64.0762 28.6649 64.6632 28.7399 65.1753 28.9022C65.6874 29.0646 66.0746 29.2894 66.3619 29.5767C66.6492 29.864 66.7866 30.2137 66.7866 30.6134C66.7866 31.0131 66.6492 31.3503 66.3619 31.6501C66.0746 31.9374 65.6874 32.1622 65.1753 32.3246C64.6632 32.4745 64.0762 32.5619 63.4017 32.5619C62.7272 32.5619 62.1277 32.487 61.6156 32.3246C61.1035 32.1622 60.7038 31.9499 60.429 31.6501C60.1542 31.3628 60.0168 31.0131 60.0168 30.6134C60.0168 30.2137 60.1542 29.8765 60.429 29.5767C60.7038 29.2894 61.1035 29.0646 61.6156 28.9022C62.1277 28.7399 62.7147 28.6649 63.4017 28.6649ZM60.1417 34.9975H61.2534V37.1584H60.1417V34.9975ZM60.1417 36.9335H66.7741V37.8204H60.1417V36.9335ZM63.4017 29.5517C62.9521 29.5517 62.5648 29.5892 62.2276 29.6766C61.8904 29.7641 61.6406 29.889 61.4532 30.0389C61.2783 30.2012 61.1784 30.3886 61.1784 30.6134C61.1784 30.8382 61.2659 31.0256 61.4532 31.188C61.6281 31.3503 61.8904 31.4752 62.2276 31.5502C62.5648 31.6251 62.9521 31.6751 63.4017 31.6751C63.8514 31.6751 64.2386 31.6376 64.5758 31.5502C64.913 31.4628 65.1628 31.3503 65.3377 31.188C65.5251 31.0256 65.6125 30.8382 65.6125 30.6134C65.6125 30.3886 65.5251 30.2012 65.3377 30.0389C65.1504 29.8765 64.9005 29.7516 64.5758 29.6766C64.251 29.5892 63.8638 29.5517 63.4017 29.5517ZM62.9271 33.786H64.0512V35.8968H62.9271V33.786Z" fill="white"/>
<path d="M68.509 35.9842H77.1524V36.8835H68.509V35.9842ZM69.5332 29.127H76.1282V32.1497H70.6199V33.9108H69.5457V31.2753H75.0415V30.0013H69.5332V29.1145V29.127ZM69.5582 33.4861H76.353V34.3605H69.5582V33.4861ZM72.2686 34.0482H73.3678V36.3589H72.2686V34.0482Z" fill="white"/>
<path d="M78.3794 35.8843H87.0227V36.7836H78.3794V35.8843ZM79.4411 29.3019H85.9735V30.1887H80.5277V33.3363H79.4411V29.3019ZM79.4411 32.9616H86.061V33.8484H79.4411V32.9616Z" fill="white"/>
</svg>
