<svg width="24" height="24" viewBox="0 0 24 24" fill="none" xmlns="http://www.w3.org/2000/svg">
<rect width="24" height="24" rx="12" fill="#502314"/>
<path d="M13.1316 18.0046C13.7114 17.5662 14.2488 16.8874 14.6236 16.5551L16.554 14.8792C16.9641 14.5257 17.7419 13.4933 18.1238 13.1114C18.8804 12.3548 18.0743 11.4356 17.3106 10.6719C16.1651 9.52641 15.3943 9.02436 14.2135 7.91421C13.5912 7.33438 12.4103 5.70096 11.4699 6.64141C10.9466 7.16467 10.9466 8.0132 11.4699 8.52232C11.8871 8.93951 12.3255 9.34963 12.7498 9.75975C12.9548 9.96482 13.1528 10.1628 13.3579 10.3679C13.5134 10.5234 13.8599 10.7992 13.8953 11.0043C13.3791 11.1245 12.8063 11.1174 12.2901 11.1669C11.0315 11.28 9.73041 11.1103 8.46469 11.075C7.55959 11.0467 6.65449 11.0891 5.7494 11.1174C5.01401 11.1174 4.16548 11.8811 4.16548 12.6165C4.16548 13.3519 4.73824 13.6842 5.47363 13.6842C7.84951 13.6842 10.2112 13.6135 12.5942 13.4933C13.0821 13.4721 13.9518 13.2811 14.4044 13.5074C14.2276 13.9812 13.5417 14.4974 13.1811 14.858C12.7356 15.3035 12.2972 15.7419 11.8517 16.1874C11.6608 16.3783 11.4204 16.5338 11.2648 16.7601C10.9537 17.1844 11.1446 17.743 11.484 18.0824C12.0144 18.6127 12.6013 18.4218 13.1387 18.0117L13.1316 18.0046Z" fill="#FFFCF8"/>
</svg>
